<svg xmlns="http://www.w3.org/2000/svg" xmlns:xlink="http://www.w3.org/1999/xlink" width="378" zoomAndPan="magnify" viewBox="0 0 283.5 141.750002" height="189" preserveAspectRatio="xMidYMid meet" version="1.2"><defs><clipPath id="0a5fdc3400"><path d="M 0 0 L 283 0 L 283 141.5 L 0 141.5 Z M 0 0 "/></clipPath><clipPath id="35736dfddd"><path d="M 14.148438 55 L 60 55 L 60 82.308594 L 14.148438 82.308594 Z M 14.148438 55 "/></clipPath><clipPath id="aa524540f1"><path d="M 58 43.375 L 76 43.375 L 76 63 L 58 63 Z M 58 43.375 "/></clipPath><clipPath id="3261683c6a"><path d="M 32 68 L 45 68 L 45 82.308594 L 32 82.308594 Z M 32 68 "/></clipPath><clipPath id="275099967d"><path d="M 46 43.375 L 94.269531 43.375 L 94.269531 77 L 46 77 Z M 46 43.375 "/></clipPath><clipPath id="fdaf77ca06"><path d="M 212 55 L 257.394531 55 L 257.394531 82.308594 L 212 82.308594 Z M 212 55 "/></clipPath><clipPath id="4e7aeb485a"><path d="M 195 43.375 L 213 43.375 L 213 63 L 195 63 Z M 195 43.375 "/></clipPath><clipPath id="cdfbebc977"><path d="M 226 68 L 239 68 L 239 82.308594 L 226 82.308594 Z M 226 68 "/></clipPath><clipPath id="4bed714b48"><path d="M 177.273438 43.375 L 226 43.375 L 226 77 L 177.273438 77 Z M 177.273438 43.375 "/></clipPath></defs><g id="e53fc06158"><g clip-rule="nonzero" clip-path="url(#0a5fdc3400)"><path style=" stroke:none;fill-rule:nonzero;fill:#ffffff;fill-opacity:1;" d="M 0 0 L 283 0 L 283 141.5 L 0 141.5 Z M 0 0 "/><path style=" stroke:none;fill-rule:nonzero;fill:#ffffff;fill-opacity:1;" d="M 0 0 L 283.035156 0 L 283.035156 141.519531 L 0 141.519531 Z M 0 0 "/></g><g style="fill:#145c8c;fill-opacity:1;"><g transform="translate(96.664203, 75.255692)"><path style="stroke:none" d="M 9.65625 -5.890625 L 17.53125 -5.890625 L 17.53125 0 L 2.546875 0 L 2.546875 -32.890625 L 17.53125 -32.890625 L 17.53125 -27.09375 L 9.65625 -27.09375 L 9.65625 -19.359375 L 17.03125 -19.359375 L 17.03125 -13.78125 L 9.65625 -13.78125 Z M 9.65625 -5.890625 "/></g></g><g style="fill:#145c8c;fill-opacity:1;"><g transform="translate(115.773618, 75.255692)"><path style="stroke:none" d="M 21.609375 -32.890625 L 16.359375 -16.46875 L 22.265625 0 L 14.84375 0 L 11.390625 -11.484375 L 7.921875 0 L 0.453125 0 L 6.359375 -16.46875 L 1.21875 -32.890625 L 8.125 -32.890625 L 11.390625 -22.265625 L 14.640625 -32.890625 Z M 21.609375 -32.890625 "/></g></g><g style="fill:#145c8c;fill-opacity:1;"><g transform="translate(138.694754, 75.255692)"><path style="stroke:none" d="M 9.65625 -5.890625 L 17.53125 -5.890625 L 17.53125 0 L 2.546875 0 L 2.546875 -32.890625 L 17.53125 -32.890625 L 17.53125 -27.09375 L 9.65625 -27.09375 L 9.65625 -19.359375 L 17.03125 -19.359375 L 17.03125 -13.78125 L 9.65625 -13.78125 Z M 9.65625 -5.890625 "/></g></g><g style="fill:#145c8c;fill-opacity:1;"><g transform="translate(157.804168, 75.255692)"><path style="stroke:none" d="M 9.65625 -6 L 17.4375 -6 L 17.4375 0 L 2.546875 0 L 2.546875 -32.890625 L 9.65625 -32.890625 Z M 9.65625 -6 "/></g></g><g style="fill:#000000;fill-opacity:1;"><g transform="translate(176.057559, 75.255692)"><path style="stroke:none" d=""/></g></g><g style="fill:#000000;fill-opacity:1;"><g transform="translate(80.253435, 99.369905)"><path style="stroke:none" d="M 8.796875 -2.234375 L 9.640625 -0.828125 C 8.941406 -0.410156 8.34375 -0.117188 7.84375 0.046875 C 7.351562 0.210938 6.734375 0.296875 5.984375 0.296875 C 4.503906 0.296875 3.300781 -0.289062 2.375 -1.46875 C 1.445312 -2.65625 0.984375 -4.003906 0.984375 -5.515625 C 0.984375 -7.191406 1.453125 -8.578125 2.390625 -9.671875 C 3.335938 -10.773438 4.632812 -11.328125 6.28125 -11.328125 C 7.425781 -11.328125 8.492188 -10.953125 9.484375 -10.203125 L 8.484375 -8.90625 C 8.054688 -9.28125 7.664062 -9.535156 7.3125 -9.671875 C 6.96875 -9.816406 6.523438 -9.890625 5.984375 -9.890625 C 5.023438 -9.890625 4.28125 -9.453125 3.75 -8.578125 C 3.226562 -7.703125 2.96875 -6.75 2.96875 -5.71875 C 2.96875 -5.039062 3.066406 -4.378906 3.265625 -3.734375 C 3.460938 -3.085938 3.804688 -2.507812 4.296875 -2 C 4.796875 -1.5 5.394531 -1.25 6.09375 -1.25 C 6.632812 -1.25 7.085938 -1.320312 7.453125 -1.46875 C 7.828125 -1.613281 8.273438 -1.867188 8.796875 -2.234375 Z M 8.796875 -2.234375 "/></g></g><g style="fill:#000000;fill-opacity:1;"><g transform="translate(90.267066, 99.369905)"><path style="stroke:none" d="M 5.96875 0.296875 C 4.40625 0.296875 3.179688 -0.269531 2.296875 -1.40625 C 1.421875 -2.550781 0.984375 -3.921875 0.984375 -5.515625 C 0.984375 -7.109375 1.425781 -8.472656 2.3125 -9.609375 C 3.207031 -10.753906 4.425781 -11.328125 5.96875 -11.328125 C 7.539062 -11.328125 8.769531 -10.765625 9.65625 -9.640625 C 10.539062 -8.515625 10.984375 -7.140625 10.984375 -5.515625 C 10.984375 -3.898438 10.539062 -2.523438 9.65625 -1.390625 C 8.769531 -0.265625 7.539062 0.296875 5.96875 0.296875 Z M 5.96875 -1.109375 C 6.695312 -1.109375 7.300781 -1.351562 7.78125 -1.84375 C 8.257812 -2.332031 8.582031 -2.890625 8.75 -3.515625 C 8.925781 -4.148438 9.015625 -4.816406 9.015625 -5.515625 C 9.015625 -6.210938 8.925781 -6.878906 8.75 -7.515625 C 8.570312 -8.148438 8.238281 -8.710938 7.75 -9.203125 C 7.269531 -9.691406 6.675781 -9.9375 5.96875 -9.9375 C 5.257812 -9.9375 4.660156 -9.691406 4.171875 -9.203125 C 3.691406 -8.710938 3.363281 -8.148438 3.1875 -7.515625 C 3.019531 -6.878906 2.9375 -6.210938 2.9375 -5.515625 C 2.9375 -4.867188 3.03125 -4.222656 3.21875 -3.578125 C 3.414062 -2.941406 3.753906 -2.367188 4.234375 -1.859375 C 4.722656 -1.359375 5.300781 -1.109375 5.96875 -1.109375 Z M 5.96875 -1.109375 "/></g></g><g style="fill:#000000;fill-opacity:1;"><g transform="translate(102.194411, 99.369905)"><path style="stroke:none" d="M 10.328125 0 L 8.5 0 L 8.5 -6.796875 C 8.5 -7.128906 8.492188 -7.40625 8.484375 -7.625 C 8.472656 -7.851562 8.429688 -8.109375 8.359375 -8.390625 C 8.296875 -8.671875 8.195312 -8.894531 8.0625 -9.0625 C 7.9375 -9.238281 7.75 -9.382812 7.5 -9.5 C 7.257812 -9.625 6.972656 -9.6875 6.640625 -9.6875 C 5.660156 -9.6875 4.648438 -9.195312 3.609375 -8.21875 L 3.609375 0 L 1.78125 0 L 1.78125 -7.84375 C 1.78125 -9.257812 1.535156 -10.304688 1.046875 -10.984375 L 3.078125 -11.25 C 3.296875 -10.675781 3.4375 -10.144531 3.5 -9.65625 C 4.613281 -10.769531 5.765625 -11.328125 6.953125 -11.328125 C 8.117188 -11.328125 8.972656 -10.972656 9.515625 -10.265625 C 10.054688 -9.566406 10.328125 -8.609375 10.328125 -7.390625 Z M 10.328125 0 "/></g></g><g style="fill:#000000;fill-opacity:1;"><g transform="translate(114.366534, 99.369905)"><path style="stroke:none" d="M 1.140625 -0.640625 L 1.921875 -2 C 2.773438 -1.40625 3.5625 -1.109375 4.28125 -1.109375 C 4.882812 -1.109375 5.410156 -1.226562 5.859375 -1.46875 C 6.304688 -1.707031 6.53125 -2.109375 6.53125 -2.671875 C 6.53125 -3.117188 6.347656 -3.507812 5.984375 -3.84375 C 5.628906 -4.175781 5.195312 -4.457031 4.6875 -4.6875 C 4.175781 -4.925781 3.664062 -5.175781 3.15625 -5.4375 C 2.65625 -5.695312 2.226562 -6.050781 1.875 -6.5 C 1.519531 -6.945312 1.34375 -7.484375 1.34375 -8.109375 C 1.34375 -9.140625 1.71875 -9.929688 2.46875 -10.484375 C 3.226562 -11.046875 4.148438 -11.328125 5.234375 -11.328125 C 6.359375 -11.328125 7.34375 -11.066406 8.1875 -10.546875 L 7.546875 -9.125 C 6.847656 -9.664062 6.144531 -9.9375 5.4375 -9.9375 C 4.851562 -9.9375 4.335938 -9.816406 3.890625 -9.578125 C 3.453125 -9.335938 3.234375 -8.953125 3.234375 -8.421875 C 3.234375 -7.972656 3.410156 -7.582031 3.765625 -7.25 C 4.117188 -6.914062 4.550781 -6.632812 5.0625 -6.40625 C 5.570312 -6.175781 6.082031 -5.929688 6.59375 -5.671875 C 7.113281 -5.410156 7.550781 -5.046875 7.90625 -4.578125 C 8.257812 -4.117188 8.4375 -3.570312 8.4375 -2.9375 C 8.4375 -1.84375 8.0625 -1.03125 7.3125 -0.5 C 6.5625 0.03125 5.609375 0.296875 4.453125 0.296875 C 3.460938 0.296875 2.359375 -0.015625 1.140625 -0.640625 Z M 1.140625 -0.640625 "/></g></g><g style="fill:#000000;fill-opacity:1;"><g transform="translate(123.935112, 99.369905)"><path style="stroke:none" d="M 11.890625 -1.625 L 12.265625 -0.46875 C 12.160156 -0.425781 11.992188 -0.351562 11.765625 -0.25 C 11.535156 -0.15625 11.347656 -0.0820312 11.203125 -0.03125 C 11.066406 0.0195312 10.894531 0.0703125 10.6875 0.125 C 10.476562 0.175781 10.289062 0.203125 10.125 0.203125 C 9.695312 0.203125 9.347656 0.0625 9.078125 -0.21875 C 8.816406 -0.5 8.648438 -0.863281 8.578125 -1.3125 C 7.535156 -0.238281 6.398438 0.296875 5.171875 0.296875 C 3.992188 0.296875 3.132812 -0.0546875 2.59375 -0.765625 C 2.050781 -1.472656 1.78125 -2.4375 1.78125 -3.65625 L 1.78125 -9.75 C 1.78125 -9.769531 1.753906 -9.878906 1.703125 -10.078125 C 1.660156 -10.273438 1.613281 -10.476562 1.5625 -10.6875 C 1.507812 -10.90625 1.484375 -11.03125 1.484375 -11.0625 L 3.625 -11.0625 L 3.625 -4.25 C 3.625 -3.851562 3.640625 -3.515625 3.671875 -3.234375 C 3.710938 -2.953125 3.789062 -2.65625 3.90625 -2.34375 C 4.019531 -2.03125 4.207031 -1.785156 4.46875 -1.609375 C 4.738281 -1.441406 5.078125 -1.359375 5.484375 -1.359375 C 6.304688 -1.359375 7.015625 -1.617188 7.609375 -2.140625 C 8.203125 -2.671875 8.5 -3.351562 8.5 -4.1875 L 8.5 -9.75 C 8.5 -9.769531 8.476562 -9.878906 8.4375 -10.078125 C 8.394531 -10.273438 8.347656 -10.476562 8.296875 -10.6875 C 8.242188 -10.90625 8.21875 -11.03125 8.21875 -11.0625 L 10.359375 -11.0625 L 10.359375 -2.15625 C 10.359375 -1.863281 10.390625 -1.648438 10.453125 -1.515625 C 10.515625 -1.378906 10.644531 -1.3125 10.84375 -1.3125 C 11.019531 -1.3125 11.367188 -1.414062 11.890625 -1.625 Z M 11.890625 -1.625 "/></g></g><g style="fill:#000000;fill-opacity:1;"><g transform="translate(136.240751, 99.369905)"><path style="stroke:none" d="M 3.71875 0 L 1.875 0 L 1.875 -15.671875 C 1.875 -15.691406 1.847656 -15.796875 1.796875 -15.984375 C 1.753906 -16.179688 1.707031 -16.382812 1.65625 -16.59375 C 1.601562 -16.8125 1.578125 -16.9375 1.578125 -16.96875 L 3.71875 -16.96875 Z M 3.71875 0 "/></g></g><g style="fill:#000000;fill-opacity:1;"><g transform="translate(141.826136, 99.369905)"><path style="stroke:none" d="M 6.53125 -1.40625 L 6.828125 -0.15625 C 5.953125 0.113281 5.21875 0.25 4.625 0.25 C 3.71875 0.25 3.066406 0.0078125 2.671875 -0.46875 C 2.285156 -0.957031 2.09375 -1.675781 2.09375 -2.625 L 2.09375 -9.65625 L 0.453125 -9.65625 L 0.453125 -10.78125 C 1.734375 -10.8125 2.59375 -11.960938 3.03125 -14.234375 L 4.4375 -14.234375 C 4.101562 -12.890625 3.9375 -11.832031 3.9375 -11.0625 L 6.828125 -11.0625 L 6.4375 -9.65625 L 3.9375 -9.65625 L 3.9375 -2.578125 C 3.9375 -2.109375 4.019531 -1.757812 4.1875 -1.53125 C 4.363281 -1.300781 4.675781 -1.1875 5.125 -1.1875 C 5.46875 -1.1875 5.9375 -1.257812 6.53125 -1.40625 Z M 6.53125 -1.40625 "/></g></g><g style="fill:#000000;fill-opacity:1;"><g transform="translate(149.102704, 99.369905)"><path style="stroke:none" d="M 10.703125 -1.625 L 11.09375 -0.46875 C 10.988281 -0.425781 10.820312 -0.351562 10.59375 -0.25 C 10.363281 -0.15625 10.175781 -0.0820312 10.03125 -0.03125 C 9.882812 0.0195312 9.707031 0.0703125 9.5 0.125 C 9.300781 0.175781 9.117188 0.203125 8.953125 0.203125 C 8.523438 0.203125 8.171875 0.0625 7.890625 -0.21875 C 7.617188 -0.5 7.445312 -0.863281 7.375 -1.3125 C 6.375 -0.269531 5.257812 0.25 4.03125 0.25 C 3.132812 0.25 2.398438 -0.015625 1.828125 -0.546875 C 1.265625 -1.078125 0.984375 -1.785156 0.984375 -2.671875 C 0.984375 -5.179688 3.097656 -6.453125 7.328125 -6.484375 L 7.328125 -7.65625 C 7.328125 -9.144531 6.710938 -9.890625 5.484375 -9.890625 C 4.898438 -9.890625 4.3125 -9.769531 3.71875 -9.53125 C 3.125 -9.289062 2.648438 -8.972656 2.296875 -8.578125 L 1.375 -9.890625 C 2.582031 -10.847656 4.003906 -11.328125 5.640625 -11.328125 C 6.796875 -11.328125 7.671875 -11.007812 8.265625 -10.375 C 8.867188 -9.75 9.171875 -8.851562 9.171875 -7.6875 L 9.171875 -2.15625 C 9.171875 -1.863281 9.203125 -1.648438 9.265625 -1.515625 C 9.335938 -1.378906 9.46875 -1.3125 9.65625 -1.3125 C 9.84375 -1.3125 10.191406 -1.414062 10.703125 -1.625 Z M 7.328125 -4.3125 L 7.328125 -5.03125 C 6.773438 -5.03125 6.300781 -5.007812 5.90625 -4.96875 C 5.519531 -4.9375 5.0625 -4.851562 4.53125 -4.71875 C 4 -4.582031 3.585938 -4.347656 3.296875 -4.015625 C 3.015625 -3.679688 2.875 -3.253906 2.875 -2.734375 C 2.875 -2.265625 3.03125 -1.910156 3.34375 -1.671875 C 3.664062 -1.429688 4.09375 -1.3125 4.625 -1.3125 C 5.382812 -1.3125 6.023438 -1.617188 6.546875 -2.234375 C 7.066406 -2.847656 7.328125 -3.539062 7.328125 -4.3125 Z M 7.328125 -4.3125 "/></g></g><g style="fill:#000000;fill-opacity:1;"><g transform="translate(160.095443, 99.369905)"><path style="stroke:none" d="M 10.328125 0 L 8.5 0 L 8.5 -6.796875 C 8.5 -7.128906 8.492188 -7.40625 8.484375 -7.625 C 8.472656 -7.851562 8.429688 -8.109375 8.359375 -8.390625 C 8.296875 -8.671875 8.195312 -8.894531 8.0625 -9.0625 C 7.9375 -9.238281 7.75 -9.382812 7.5 -9.5 C 7.257812 -9.625 6.972656 -9.6875 6.640625 -9.6875 C 5.660156 -9.6875 4.648438 -9.195312 3.609375 -8.21875 L 3.609375 0 L 1.78125 0 L 1.78125 -7.84375 C 1.78125 -9.257812 1.535156 -10.304688 1.046875 -10.984375 L 3.078125 -11.25 C 3.296875 -10.675781 3.4375 -10.144531 3.5 -9.65625 C 4.613281 -10.769531 5.765625 -11.328125 6.953125 -11.328125 C 8.117188 -11.328125 8.972656 -10.972656 9.515625 -10.265625 C 10.054688 -9.566406 10.328125 -8.609375 10.328125 -7.390625 Z M 10.328125 0 "/></g></g><g style="fill:#000000;fill-opacity:1;"><g transform="translate(172.267565, 99.369905)"><path style="stroke:none" d="M 8.796875 -2.234375 L 9.640625 -0.828125 C 8.941406 -0.410156 8.34375 -0.117188 7.84375 0.046875 C 7.351562 0.210938 6.734375 0.296875 5.984375 0.296875 C 4.503906 0.296875 3.300781 -0.289062 2.375 -1.46875 C 1.445312 -2.65625 0.984375 -4.003906 0.984375 -5.515625 C 0.984375 -7.191406 1.453125 -8.578125 2.390625 -9.671875 C 3.335938 -10.773438 4.632812 -11.328125 6.28125 -11.328125 C 7.425781 -11.328125 8.492188 -10.953125 9.484375 -10.203125 L 8.484375 -8.90625 C 8.054688 -9.28125 7.664062 -9.535156 7.3125 -9.671875 C 6.96875 -9.816406 6.523438 -9.890625 5.984375 -9.890625 C 5.023438 -9.890625 4.28125 -9.453125 3.75 -8.578125 C 3.226562 -7.703125 2.96875 -6.75 2.96875 -5.71875 C 2.96875 -5.039062 3.066406 -4.378906 3.265625 -3.734375 C 3.460938 -3.085938 3.804688 -2.507812 4.296875 -2 C 4.796875 -1.5 5.394531 -1.25 6.09375 -1.25 C 6.632812 -1.25 7.085938 -1.320312 7.453125 -1.46875 C 7.828125 -1.613281 8.273438 -1.867188 8.796875 -2.234375 Z M 8.796875 -2.234375 "/></g></g><g style="fill:#000000;fill-opacity:1;"><g transform="translate(182.281196, 99.369905)"><path style="stroke:none" d="M 1.6875 4.828125 L 0.84375 4.828125 L 0.84375 3.34375 L 1.09375 3.34375 C 1.539062 3.34375 1.941406 3.238281 2.296875 3.03125 C 2.648438 2.832031 2.957031 2.539062 3.21875 2.15625 C 3.476562 1.769531 3.6875 1.410156 3.84375 1.078125 C 4 0.753906 4.15625 0.363281 4.3125 -0.09375 L 0.265625 -11.0625 L 2.265625 -11.0625 L 5.203125 -2.65625 L 8.15625 -11.0625 L 9.890625 -11.0625 L 5.96875 0.046875 C 4.820312 3.234375 3.394531 4.828125 1.6875 4.828125 Z M 1.6875 4.828125 "/></g></g><g clip-rule="nonzero" clip-path="url(#35736dfddd)"><path style=" stroke:none;fill-rule:nonzero;fill:#58b9e2;fill-opacity:1;" d="M 52.566406 70.378906 L 49.703125 68.109375 L 48.535156 67.179688 L 46.21875 65.34375 L 45.410156 64.703125 L 44.246094 63.773438 L 34.328125 55.90625 L 14.148438 79.730469 L 15.667969 81.015625 L 17.191406 82.296875 L 20.28125 78.648438 L 34.878906 61.417969 L 41.671875 66.8125 L 42.257812 67.273438 L 42.332031 67.335938 L 42.84375 67.738281 L 45.960938 70.214844 L 46.546875 70.679688 L 47.128906 71.140625 L 53.253906 76.003906 L 59.386719 68.066406 L 56.269531 65.589844 Z M 52.566406 70.378906 "/></g><g clip-rule="nonzero" clip-path="url(#aa524540f1)"><path style=" stroke:none;fill-rule:nonzero;fill:#58b9e2;fill-opacity:1;" d="M 67.390625 57.699219 L 73.488281 61.96875 L 74.734375 51.679688 L 74.59375 51.582031 L 74.75 51.507812 L 75.734375 43.386719 L 58.964844 51.796875 L 64.128906 55.414062 L 63.183594 56.640625 L 60.523438 60.082031 L 63.636719 62.558594 Z M 67.390625 57.699219 "/></g><g clip-rule="nonzero" clip-path="url(#3261683c6a)"><path style=" stroke:none;fill-rule:nonzero;fill:#145c8c;fill-opacity:1;" d="M 32.683594 79.730469 L 34.207031 81.015625 L 35.726562 82.296875 L 44.996094 71.351562 L 41.875 68.878906 Z M 32.683594 79.730469 "/></g><g clip-rule="nonzero" clip-path="url(#275099967d)"><path style=" stroke:none;fill-rule:nonzero;fill:#145c8c;fill-opacity:1;" d="M 63.316406 64.199219 L 62.730469 63.734375 L 59.613281 61.261719 L 59.027344 60.796875 L 58.441406 60.335938 L 52.867188 55.90625 L 46.378906 63.566406 L 47.152344 64.175781 L 49.496094 66.039062 L 53.414062 61.417969 L 56.011719 63.480469 L 56.597656 63.945312 L 57.179688 64.40625 L 60.300781 66.882812 L 60.867188 67.335938 L 60.886719 67.347656 L 61.46875 67.808594 L 71.789062 76.003906 L 85.925781 57.699219 L 92.023438 61.96875 L 94.269531 43.386719 L 77.5 51.796875 L 82.667969 55.414062 L 81.71875 56.640625 L 71.101562 70.378906 L 64.757812 65.34375 L 63.902344 64.664062 Z M 63.316406 64.199219 "/></g><path style=" stroke:none;fill-rule:nonzero;fill:#145c8c;fill-opacity:1;" d="M 63.316406 64.199219 L 62.730469 63.734375 Z M 63.316406 64.199219 "/><g clip-rule="nonzero" clip-path="url(#fdaf77ca06)"><path style=" stroke:none;fill-rule:nonzero;fill:#58b9e2;fill-opacity:1;" d="M 218.976562 70.378906 L 221.839844 68.109375 L 223.007812 67.179688 L 225.324219 65.34375 L 226.132812 64.703125 L 227.296875 63.773438 L 237.214844 55.90625 L 257.394531 79.730469 L 255.875 81.015625 L 254.351562 82.296875 L 251.261719 78.648438 L 236.664062 61.417969 L 229.871094 66.8125 L 229.285156 67.273438 L 229.210938 67.335938 L 228.699219 67.738281 L 225.582031 70.214844 L 224.996094 70.679688 L 224.414062 71.140625 L 218.289062 76.003906 L 212.15625 68.066406 L 215.273438 65.589844 Z M 218.976562 70.378906 "/></g><g clip-rule="nonzero" clip-path="url(#4e7aeb485a)"><path style=" stroke:none;fill-rule:nonzero;fill:#58b9e2;fill-opacity:1;" d="M 204.152344 57.699219 L 198.054688 61.96875 L 196.808594 51.679688 L 196.949219 51.582031 L 196.792969 51.507812 L 195.808594 43.386719 L 212.578125 51.796875 L 207.414062 55.414062 L 208.359375 56.640625 L 211.019531 60.082031 L 207.90625 62.558594 Z M 204.152344 57.699219 "/></g><g clip-rule="nonzero" clip-path="url(#cdfbebc977)"><path style=" stroke:none;fill-rule:nonzero;fill:#145c8c;fill-opacity:1;" d="M 238.859375 79.730469 L 237.335938 81.015625 L 235.816406 82.296875 L 226.546875 71.351562 L 229.667969 68.878906 Z M 238.859375 79.730469 "/></g><g clip-rule="nonzero" clip-path="url(#4bed714b48)"><path style=" stroke:none;fill-rule:nonzero;fill:#145c8c;fill-opacity:1;" d="M 208.226562 64.199219 L 208.8125 63.734375 L 211.929688 61.261719 L 212.515625 60.796875 L 213.101562 60.335938 L 218.675781 55.90625 L 225.164062 63.566406 L 224.390625 64.175781 L 222.046875 66.039062 L 218.128906 61.417969 L 215.53125 63.480469 L 214.945312 63.945312 L 214.363281 64.40625 L 211.242188 66.882812 L 210.675781 67.335938 L 210.65625 67.347656 L 210.074219 67.808594 L 199.753906 76.003906 L 185.617188 57.699219 L 179.519531 61.96875 L 177.273438 43.386719 L 194.042969 51.796875 L 188.875 55.414062 L 189.824219 56.640625 L 200.441406 70.378906 L 206.785156 65.34375 L 207.640625 64.664062 Z M 208.226562 64.199219 "/></g><path style=" stroke:none;fill-rule:nonzero;fill:#145c8c;fill-opacity:1;" d="M 208.226562 64.199219 L 208.8125 63.734375 Z M 208.226562 64.199219 "/></g></svg>